<svg xmlns="http://www.w3.org/2000/svg"
  xmlns:xlink="http://www.w3.org/1999/xlink" width="512" height="256" viewBox="0 0 512 256">
  <defs>
    <clipPath id="clip-Artboard_1">
      <rect width="512" height="256"/>
    </clipPath>
  </defs>
  <g id="Artboard_1" data-name="Artboard – 1" clip-path="url(#clip-Artboard_1)">
    <g id="Icon_ionic-ios-planet" data-name="Icon ionic-ios-planet" transform="translate(0.128 25.648)">
      <path id="Path_1" data-name="Path 1" d="M305.7,172.584c-1.386-4.011-4.084-8.387-8.314-13.346-7.439-8.752-22.463-21.369-39.966-34.423a3.541,3.541,0,0,0-5.47,1.677l-3.428,9.773a3.531,3.531,0,0,0,1.24,4.011c11.6,8.46,26.182,20.348,30.485,26.182a2.717,2.717,0,0,1-2.844,4.23,313.648,313.648,0,0,1-32.235-9.335c-6.272-2.261-12.909-4.886-19.837-7.731a86.866,86.866,0,0,0-9.043-115.96,89.188,89.188,0,0,0-114.064-7.439,87.732,87.732,0,0,0-29.61,37.924c-6.053-4.376-11.742-8.679-16.92-12.836C45.7,47.362,34.979,39.266,27.467,30c-1.6-2.042.656-4.886,3.209-4.3,8.241,1.9,25.818,7.949,41.133,13.784a3.2,3.2,0,0,0,3.282-.583l8.1-7.366a3.126,3.126,0,0,0-.948-5.251C56.639,15.855,33.447,9,21.778,9,13.391,9,7.7,11.553,4.786,16.585-.757,26.285,9.964,42.256,37.677,65.3c24.869,20.785,60.241,45.071,99.551,67.1,63.814,35.809,124.785,59.074,151.7,59.074,8.168,0,13.638-2.261,16.118-6.637C307.084,181.409,307.3,177.251,305.7,172.584Z" transform="translate(0 0)" fill="#f4476b"/>
      <path id="Path_2" data-name="Path 2" d="M144.906,90.461C123.683,81.126,101.658,71.5,77.372,57.788,55.42,45.462,34.051,31.168,15.819,18.7a4.366,4.366,0,0,0-2.48-.8,4.237,4.237,0,0,0-2.042.511A4.273,4.273,0,0,0,8.89,22.2c0,.875-.073,1.75-.073,2.553a86.427,86.427,0,0,0,25.89,61.918,89.084,89.084,0,0,0,110.855,11.45,4.242,4.242,0,0,0,1.969-4.011A4.2,4.2,0,0,0,144.906,90.461Z" transform="translate(51.031 83.363)" fill="#f4476b"/>
    </g>
    <text id="retbing" transform="translate(282 150)" fill="#f4476b" font-size="60" font-family="ArialRoundedMTBold, Arial Rounded MT">
      <tspan x="0" y="0">retbing</tspan>
    </text>
  </g>
</svg>
